<svg xmlns="http://www.w3.org/2000/svg" width="416.759" height="74.3" viewBox="0 0 416.759 74.3">
  <g id="AimeeRideough_Graphic" transform="translate(-129.8 -160.3)">
    <g id="Layer_1">
      <g id="Group_1" data-name="Group 1">
        <path id="Path_1" data-name="Path 1" d="M163.9,200.4a1.624,1.624,0,0,1-1.8-1.5,1.182,1.182,0,0,1,1.3-1.2s2.8-.2,2.1-2.1l-3.9-11.3a14.812,14.812,0,0,0-6.3-1.9,13.762,13.762,0,0,0-5.6,1.2l-4.6,11.3c-2,4.8-5.7,6.7-8.9,6.7a6.072,6.072,0,0,1-4.7-2,6.205,6.205,0,0,1-1.7-4.1,4.672,4.672,0,0,1,2.3-4.1,3.936,3.936,0,0,1,2.1-.6,2.373,2.373,0,0,1,1.7.5c.2.5-.5.8-.4,1.5a1.35,1.35,0,0,0,.5,1c1.1,1.1,3.4.1,4.1-1.6l11.1-27c.8-2-1.7-2.1-1.7-2.1a1.257,1.257,0,0,1-1.3-1.5,1.309,1.309,0,0,1,1.3-1.2h15.3c1,0,1.4.6,1.4,1.2a1.511,1.511,0,0,1-1.4,1.5s-1.8,0-1.1,2.1l10.1,30.3c.7,2,2.1,2.2,2.1,2.2a1.5,1.5,0,0,1,1.6,1.5,1.131,1.131,0,0,1-1.1,1.2H163.9Zm-8.2-32.9-4.5,11a15.892,15.892,0,0,1,4.1-.7,13.281,13.281,0,0,1,4.4.9Z" fill="#444839"/>
        <path id="Path_2" data-name="Path 2" d="M192.1,200.4h-12c-.8,0-1.1-.6-1.1-1.4a1.155,1.155,0,0,1,1.1-1.3,2.208,2.208,0,0,0,2-2.2V178.6a1.871,1.871,0,0,0-1.8-2.1,1.263,1.263,0,0,1-1.4-1.4,1.5,1.5,0,0,1,1.4-1.4h9.8l-.1,21.6a2.176,2.176,0,0,0,2.1,2.2c.9,0,1.2.8,1.2,1.5C193.2,199.8,192.8,200.4,192.1,200.4Zm-6.4-29.2c-2.8,0-5.1-1.8-5.1-4.1s2.3-4.1,5.1-4.1,5,1.8,5,4.1S188.5,171.2,185.7,171.2Z" fill="#444839"/>
        <path id="Path_3" data-name="Path 3" d="M243.2,199.1a1.181,1.181,0,0,1-1.2,1.3H230a1.272,1.272,0,0,1-1.2-1.4c0-.8.4-1.3,1.2-1.3a2.208,2.208,0,0,0,2-2.2V182.7a4.149,4.149,0,0,0-4.5-4.5,8.083,8.083,0,0,0-4.7,2v15.2a2.176,2.176,0,0,0,2.1,2.2c.9,0,1.2.7,1.2,1.4a1.265,1.265,0,0,1-1.2,1.4h-12c-.8,0-1.2-.7-1.2-1.5a1.153,1.153,0,0,1,1.2-1.2,2.208,2.208,0,0,0,2-2.2V182.8c0-2.6-1.5-4.6-4.5-4.6a5.92,5.92,0,0,0-4.6,2.1l.1,15.1a2.112,2.112,0,0,0,2,2.2c.9,0,1.2.7,1.2,1.4a1.24,1.24,0,0,1-1.2,1.3h-12c-.8,0-1.2-.6-1.2-1.4s.4-1.3,1.2-1.3a2.208,2.208,0,0,0,2-2.2V178.5a1.871,1.871,0,0,0-1.8-2.1,1.308,1.308,0,0,1-1.4-1.4,1.365,1.365,0,0,1,1.4-1.4h9.8v3.1a9.09,9.09,0,0,1,7.3-3.5c3.5,0,6.9,1,8.7,3.9a10.353,10.353,0,0,1,8.3-3.9c4.6,0,9.6,1.7,9.6,7.7v14.3a2.027,2.027,0,0,0,2,2.2,1.153,1.153,0,0,1,1.2,1.2C243.2,198.9,243.2,199,243.2,199.1Z" fill="#444839"/>
        <path id="Path_4" data-name="Path 4" d="M268.7,191c0,3.8-3.2,10.2-12.5,10.2-7.3,0-12.9-6.1-12.9-14,0-7.7,5.7-14,12.9-14,6.9,0,10.5,4.5,11.3,10l-15.8,7c.4,4.5,2.7,6.7,6.2,6.7,2.8,0,5.2-1.9,5.2-3.9a1.09,1.09,0,0,0-1-1.1c-.4,0-.6.3-.9.3s-.6-.3-.6-1a4.275,4.275,0,0,1,4.2-4.2,3.929,3.929,0,0,1,3.4,1.8A4.767,4.767,0,0,1,268.7,191Zm-8-10.1a4.093,4.093,0,0,0-3.9-3.5c-2.5,0-5.1,2.4-5.2,7.6Z" fill="#444839"/>
        <path id="Path_5" data-name="Path 5" d="M296.3,191c0,3.8-3.2,10.2-12.5,10.2-7.3,0-12.9-6.1-12.9-14,0-7.7,5.7-14,12.9-14,6.9,0,10.5,4.5,11.3,10l-15.8,7c.4,4.5,2.7,6.7,6.2,6.7,2.8,0,5.2-1.9,5.2-3.9a1.09,1.09,0,0,0-1-1.1c-.4,0-.6.3-.9.3s-.6-.3-.6-1a4.275,4.275,0,0,1,4.2-4.2,3.929,3.929,0,0,1,3.4,1.8A4.767,4.767,0,0,1,296.3,191Zm-8-10.1a4.093,4.093,0,0,0-3.9-3.5c-2.5,0-5.1,2.4-5.2,7.6Z" fill="#444839"/>
        <path id="Path_6" data-name="Path 6" d="M349.1,200.4H334.6A1.483,1.483,0,0,1,333,199c-.1-.7.4-1.4,1.6-1.4,0,0,2-.2,2-1.3a2.27,2.27,0,0,0-.7-1.4l-10-11.4h-1.8v11.8c0,2.1,3,2.3,3,2.3a1.4,1.4,0,0,1,0,2.8H313.5a1.312,1.312,0,0,1-1.4-1.4,1.191,1.191,0,0,1,1.4-1.3s2.6-.2,2.6-2.2V165.1c0-2.1-2.8-2.1-2.8-2.1a1.392,1.392,0,0,1-1.5-1.4,1.288,1.288,0,0,1,1.4-1.3h20.4c5.2,0,10.2,4.1,10.2,11.1.1,6.3-3.8,12.2-9.4,12.3l10.7,11.9c2.2,2.5,3.8,2,3.8,2a1.392,1.392,0,0,1,1.5,1.4A1.184,1.184,0,0,1,349.1,200.4Zm-18.7-36.5H327a2.558,2.558,0,0,0-2.8,2.9v13.5h5.7c5.4,0,6.7-5.7,6.6-9.2C336.4,167.8,334.4,163.9,330.4,163.9Z" fill="#444839"/>
        <path id="Path_7" data-name="Path 7" d="M365.4,200.4h-12c-.8,0-1.2-.6-1.2-1.4a1.234,1.234,0,0,1,1.2-1.3,2.208,2.208,0,0,0,2-2.2V178.6a1.871,1.871,0,0,0-1.8-2.1,1.263,1.263,0,0,1-1.4-1.4,1.425,1.425,0,0,1,1.4-1.4h9.8v21.6a2.112,2.112,0,0,0,2,2.2c.9,0,1.2.8,1.2,1.5C366.5,199.8,366.1,200.4,365.4,200.4ZM359,171.2c-2.8,0-5.1-1.8-5.1-4.1s2.2-4.1,5.1-4.1c2.8,0,5,1.8,5,4.1S361.8,171.2,359,171.2Z" fill="#444839"/>
        <path id="Path_8" data-name="Path 8" d="M395.4,165.7a1.871,1.871,0,0,0-1.8,2.1v27.8a2.208,2.208,0,0,0,2,2.2,1.155,1.155,0,0,1,1.2,1.2c0,.8-.4,1.5-1.2,1.5h-10v-1.7a9.116,9.116,0,0,1-5.8,2.2c-7.1,0-11.5-6.5-11.5-14.1s3.7-13.7,10.8-13.7a11.988,11.988,0,0,1,6.4,1.9v-7.3c0-3.5-3.4-1-3.4-3.4a1.377,1.377,0,0,1,1.5-1.3h11.6a1.346,1.346,0,0,1,1.4,1.3C396.8,165,396.5,165.7,395.4,165.7Zm-13.8,11.6c-3.9,0-4.9,4.1-4.9,9.4,0,5.2,1.1,9.5,4.8,9.5,3.2,0,4-4.6,4-9.3C385.6,182.1,384.7,177.3,381.6,177.3Z" fill="#444839"/>
        <path id="Path_9" data-name="Path 9" d="M423.6,191c0,3.8-3.2,10.2-12.5,10.2-7.3,0-12.9-6.1-12.9-14,0-7.7,5.7-14,12.9-14,6.9,0,10.5,4.5,11.3,10l-15.8,7c.3,4.5,2.7,6.7,6.2,6.7,2.8,0,5.2-1.9,5.2-3.9a1.09,1.09,0,0,0-1-1.1c-.4,0-.6.3-.9.3s-.6-.3-.6-1a4.275,4.275,0,0,1,4.2-4.2,4.052,4.052,0,0,1,3.4,1.8A4.768,4.768,0,0,1,423.6,191Zm-8-10.1a4,4,0,0,0-3.8-3.5c-2.6,0-5.1,2.4-5.3,7.6Z" fill="#444839"/>
        <path id="Path_10" data-name="Path 10" d="M438.7,201.1c-7.2,0-12.8-6.1-12.8-14,0-7.8,5.7-14,12.8-14,7.2,0,13,6.2,13,14S445.8,201.1,438.7,201.1Zm0-23.2c-3.7,0-4.5,4.4-4.5,9.8,0,4.9,1.1,9.1,4.6,9.1,3.7,0,4.8-4.3,4.8-9.5C443.6,182,442.5,177.9,438.7,177.9Z" fill="#444839"/>
        <path id="Path_11" data-name="Path 11" d="M484,199a1.365,1.365,0,0,1-1.4,1.4h-8.2c-1.4,0-1.5-1.5-1.6-2.4a8.866,8.866,0,0,1-6.8,2.9c-4.6,0-9.8-1.7-9.8-7.8V178.8a2.027,2.027,0,0,0-2-2.2c-.9,0-1.2-.7-1.2-1.4a1.181,1.181,0,0,1,1.2-1.3h10v17.7a4.173,4.173,0,0,0,4.5,4.4,6.819,6.819,0,0,0,4.3-1.7V178.8a2.176,2.176,0,0,0-2.1-2.2c-.9,0-1.2-.7-1.2-1.4a1.24,1.24,0,0,1,1.2-1.3h10v21.7a1.871,1.871,0,0,0,1.8,2.1A1.206,1.206,0,0,1,484,199Z" fill="#444839"/>
        <path id="Path_12" data-name="Path 12" d="M514.4,172.9a2.257,2.257,0,0,1-2.1,2.4c-.3,0-.6-.1-.9-.1a4.2,4.2,0,0,0-2.5,1.2,9.343,9.343,0,0,1,3.5,6.9c0,5.7-5.8,10.3-13,10.3a15.112,15.112,0,0,1-8.1-2.3,3.53,3.53,0,0,0-.7,1.6c0,4.9,22.6-1.6,22.6,10.4,0,3.9-6.2,9.6-14.5,9.6-4.8,0-12.9-.6-12.9-5.9a4.407,4.407,0,0,1,4.4-4.6,3.174,3.174,0,0,1,3.4,2.6c0,.8-1.8.4-1.8,1.6,0,1,1.3,1.9,6.1,1.9,2.5,0,7.7-.5,7.7-3.9,0-3.7-10.8-2.3-15.1-3.7-2.9-1-4.7-2.9-4.7-5.8,0-2.8,2.2-5.1,3.1-6a8.972,8.972,0,0,1-2.2-5.9c0-5.6,5.7-10.2,12.8-10.2a15.69,15.69,0,0,1,7,1.6c1.3-2.4,3.5-4.1,5.8-4.1a2.06,2.06,0,0,1,2.1,1.2C514.4,172.3,514.4,172.6,514.4,172.9Zm-15,4.9c-3,0-4.6,2-4.6,6,0,3.5,1.9,5.5,4.7,5.5,2.9,0,4.9-2,4.9-5.8S502.7,177.8,499.4,177.8Z" fill="#444839"/>
        <path id="Path_13" data-name="Path 13" d="M545.5,200.4h-12c-.8,0-1.1-.8-1.1-1.5a1.131,1.131,0,0,1,1.1-1.2,2.208,2.208,0,0,0,2-2.2V182.7a4.149,4.149,0,0,0-4.5-4.5,6.137,6.137,0,0,0-4.5,2v15.2a2.112,2.112,0,0,0,2,2.2,1.181,1.181,0,0,1,1.2,1.3,1.266,1.266,0,0,1-1.2,1.4h-12a1.272,1.272,0,0,1-1.2-1.4,1.174,1.174,0,0,1,1.2-1.3,2.208,2.208,0,0,0,2-2.2V167.7c0-3.6-3.2-1-3.2-3.4a1.365,1.365,0,0,1,1.4-1.4h11.6a1.365,1.365,0,0,1,1.4,1.4,1.288,1.288,0,0,1-1.4,1.3,1.929,1.929,0,0,0-1.9,2.1v8.7a9.132,9.132,0,0,1,7.3-3.2c4.5,0,9.6,1.6,9.6,7.8v14.3a2.027,2.027,0,0,0,2,2.2,1.181,1.181,0,0,1,1.2,1.3C546.7,199.7,546.4,200.4,545.5,200.4Z" fill="#444839"/>
      </g>
    </g>
    <g id="Layer_2">
      <g id="Group_2" data-name="Group 2">
        <path id="Path_14" data-name="Path 14" d="M204.4,223.2h5.4v5.7l-1.2.9c-.4.2-.9.4-1.4.6a3.926,3.926,0,0,1-1.4.3,7.084,7.084,0,0,1-1.4.1,8.21,8.21,0,0,1-2.8-.5,5.106,5.106,0,0,1-2.1-1.5,5.534,5.534,0,0,1-1.3-2.4,10.9,10.9,0,0,1-.5-3.3,10.418,10.418,0,0,1,.5-3.3,5.657,5.657,0,0,1,1.4-2.4,8.008,8.008,0,0,1,2.1-1.5,7.082,7.082,0,0,1,2.6-.5,5.1,5.1,0,0,1,5.4,4l-1.2.3a5.024,5.024,0,0,0-.5-1.3,3.915,3.915,0,0,0-.8-1,3.458,3.458,0,0,0-1.2-.7,4.416,4.416,0,0,0-1.7-.2,5.091,5.091,0,0,0-2.2.5,4.281,4.281,0,0,0-1.6,1.4,6.809,6.809,0,0,0-1,2.1,10.9,10.9,0,0,0-.3,2.6,11.153,11.153,0,0,0,.3,2.7,6.809,6.809,0,0,0,1,2.1,4.743,4.743,0,0,0,1.7,1.4,6.042,6.042,0,0,0,2.4.5,9.079,9.079,0,0,0,2.3-.3,5.382,5.382,0,0,0,2-1v-4.1h-4.2v-1.2Z" fill="#444839"/>
        <path id="Path_15" data-name="Path 15" d="M212.5,219.9h1.2v1.7a4.009,4.009,0,0,1,1.5-1.4,3.371,3.371,0,0,1,1.7-.5h.4a.6.6,0,0,1,.4.1l-.1,1.1c-.2,0-.5-.1-.7-.1a4.253,4.253,0,0,0-1.1.2,2.286,2.286,0,0,0-1,.7,3.915,3.915,0,0,0-.8,1,3.194,3.194,0,0,0-.3,1.4v6.4h-1.2V219.9Z" fill="#444839"/>
        <path id="Path_16" data-name="Path 16" d="M225.9,228.9l-.6.6a5.547,5.547,0,0,1-.8.6,4.179,4.179,0,0,1-1,.4,4.868,4.868,0,0,1-1.2.1,4.551,4.551,0,0,1-2.7-.8,2.719,2.719,0,0,1-1-2.4,2.86,2.86,0,0,1,.5-1.7,3.179,3.179,0,0,1,1.2-1.1,4.8,4.8,0,0,1,1.7-.5,12.31,12.31,0,0,1,2-.2l2.1-.1v-.3a3.715,3.715,0,0,0-.6-2.3,2.644,2.644,0,0,0-2.2-.7,5.283,5.283,0,0,0-1.3.1,2.471,2.471,0,0,0-.9.4,3.4,3.4,0,0,0-.6.6,4.875,4.875,0,0,0-.3.7l-1.1-.2c.4-1.7,1.8-2.6,4.1-2.6a5.412,5.412,0,0,1,1.9.3,2.55,2.55,0,0,1,1.2.8,3.458,3.458,0,0,1,.7,1.2,7.93,7.93,0,0,1,.2,1.7v7H226v-1.6Zm0-4.1-1.9.1a10.315,10.315,0,0,0-2,.2,3.922,3.922,0,0,0-1.3.5,1.779,1.779,0,0,0-.7.8,3.6,3.6,0,0,0-.2,1.1,2.25,2.25,0,0,0,.5,1.5,2.546,2.546,0,0,0,1.9.6,5.067,5.067,0,0,0,1.3-.2,3.7,3.7,0,0,0,1.1-.5c.2-.2.4-.3.6-.5a1.755,1.755,0,0,0,.4-.5,1.445,1.445,0,0,0,.2-.7c0-.3.1-.5.1-.9v-1.5Z" fill="#444839"/>
        <path id="Path_17" data-name="Path 17" d="M230,219.9h1.2v1.6a5.211,5.211,0,0,1,1.6-1.4,4.648,4.648,0,0,1,2.1-.5,3.966,3.966,0,0,1,2,.4,4.071,4.071,0,0,1,1.4,1.2,3.805,3.805,0,0,1,.8,1.7,13,13,0,0,1,.3,2.2,8.751,8.751,0,0,1-.3,2.4,4,4,0,0,1-1,1.8,3.269,3.269,0,0,1-1.5,1.1,4.211,4.211,0,0,1-2,.4,4.333,4.333,0,0,1-1.9-.4,4.158,4.158,0,0,1-1.6-1.4v5.4H230Zm1.1,5.7a4.121,4.121,0,0,0,.1,1.2c.1.3.1.7.2.9a4.349,4.349,0,0,0,.4.7,2.169,2.169,0,0,0,.7.6,3.128,3.128,0,0,0,1,.5,4.252,4.252,0,0,0,1.1.2,3.194,3.194,0,0,0,1.4-.3,2.836,2.836,0,0,0,1.1-.8,3.694,3.694,0,0,0,.7-1.4,8.217,8.217,0,0,0,0-4.4,4.677,4.677,0,0,0-.8-1.4,1.9,1.9,0,0,0-1.1-.7,5.02,5.02,0,0,0-1.2-.2,3.749,3.749,0,0,0-1.1.1,4.672,4.672,0,0,0-1,.5,3.339,3.339,0,0,0-1.1,1.3,4.136,4.136,0,0,0-.4,2.1v1.1Z" fill="#444839"/>
        <path id="Path_18" data-name="Path 18" d="M241.9,215.8h1.2v5.8a8.632,8.632,0,0,1,1.8-1.6,4.648,4.648,0,0,1,2.1-.5,3.337,3.337,0,0,1,2.7,1,4.1,4.1,0,0,1,.9,2.8v7h-1.2v-6.7a3.845,3.845,0,0,0-.6-2.4,2.226,2.226,0,0,0-1.9-.7,6.883,6.883,0,0,0-1.3.2,3.458,3.458,0,0,0-1.2.7,4.36,4.36,0,0,0-.9,1.1,3.339,3.339,0,0,0-.3,1.5v6.2H242V215.8Z" fill="#444839"/>
        <path id="Path_19" data-name="Path 19" d="M253.3,215.8h1.4v1.8h-1.4Zm.1,4.1h1.2v10.6h-1.2Z" fill="#444839"/>
        <path id="Path_20" data-name="Path 20" d="M266.5,227a4.982,4.982,0,0,1-1.4,2.8,4.04,4.04,0,0,1-3,1,4.515,4.515,0,0,1-3.5-1.5,5.076,5.076,0,0,1-.9-1.8,8.523,8.523,0,0,1-.3-2.3,8.017,8.017,0,0,1,.3-2.3,5.244,5.244,0,0,1,1-1.8,3.269,3.269,0,0,1,1.5-1.1,4.638,4.638,0,0,1,2.1-.4,4.1,4.1,0,0,1,2.8.9,4.706,4.706,0,0,1,1.4,2.5l-1.1.3c-.1-.4-.2-.7-.3-1.1a1.242,1.242,0,0,0-.6-.8,3.491,3.491,0,0,0-.9-.6,4.3,4.3,0,0,0-1.2-.2,3.808,3.808,0,0,0-1.6.3,2.66,2.66,0,0,0-1.1,1,6.109,6.109,0,0,0-.7,1.4,11.018,11.018,0,0,0-.2,1.8,9.907,9.907,0,0,0,.2,1.8,3.946,3.946,0,0,0,.6,1.5,5.241,5.241,0,0,0,1.1,1,4.146,4.146,0,0,0,1.6.3,2.776,2.776,0,0,0,2.2-.7,4.208,4.208,0,0,0,1-2h1Z" fill="#444839"/>
        <path id="Path_21" data-name="Path 21" d="M273.7,215.8h4.9a8.628,8.628,0,0,1,2.8.4,5.71,5.71,0,0,1,2.1,1.3,5.369,5.369,0,0,1,1.3,2.2,10.234,10.234,0,0,1,.5,3.2,11.419,11.419,0,0,1-.5,3.3,5.935,5.935,0,0,1-1.4,2.3,6.355,6.355,0,0,1-2.2,1.4,9.291,9.291,0,0,1-2.9.5h-4.5V215.8Zm4.6,13.5c2,0,3.4-.5,4.3-1.6a8.513,8.513,0,0,0,.1-9.2,4.8,4.8,0,0,0-4-1.6H275v12.4h3.3Z" fill="#444839"/>
        <path id="Path_22" data-name="Path 22" d="M296.7,227.7a3.55,3.55,0,0,1-1.3,2.2,4.479,4.479,0,0,1-3,.9,4.26,4.26,0,0,1-3.5-1.5,6.186,6.186,0,0,1-1.3-4,6.9,6.9,0,0,1,.4-2.5,5.244,5.244,0,0,1,1-1.8,3.269,3.269,0,0,1,1.5-1.1,5.848,5.848,0,0,1,1.9-.4,4.638,4.638,0,0,1,2.1.4,3.815,3.815,0,0,1,1.4,1.1,4.812,4.812,0,0,1,.8,1.6,6.479,6.479,0,0,1,.2,2v.8h-8.1a8.806,8.806,0,0,0,.2,1.7,6.109,6.109,0,0,0,.7,1.4,3.126,3.126,0,0,0,1.1.9,4.146,4.146,0,0,0,1.6.3,5.9,5.9,0,0,0,1.4-.2,1.884,1.884,0,0,0,.9-.4,4.349,4.349,0,0,0,.6-.7,1.4,1.4,0,0,0,.3-.9h1.1Zm-1.1-3.3a7.772,7.772,0,0,0-.2-1.6,2.281,2.281,0,0,0-.6-1.2,3.916,3.916,0,0,0-1-.8,3.717,3.717,0,0,0-4,.7,4.63,4.63,0,0,0-1.1,3h6.9Z" fill="#444839"/>
        <path id="Path_23" data-name="Path 23" d="M300,227.5a2.6,2.6,0,0,0,1,1.7,4.617,4.617,0,0,0,2.3.5,3.4,3.4,0,0,0,2.2-.6,1.974,1.974,0,0,0,.6-1.4,1.7,1.7,0,0,0-.1-.7l-.3-.6a4.233,4.233,0,0,0-.7-.5c-.3-.1-.7-.2-1.1-.3l-1.3-.2q-.9-.15-1.5-.3a3.7,3.7,0,0,1-1.1-.5,2.7,2.7,0,0,1-.7-.8,2.165,2.165,0,0,1-.2-1.2,2.768,2.768,0,0,1,.3-1.3,2.361,2.361,0,0,1,.8-.9,8.1,8.1,0,0,1,1.3-.6,7.772,7.772,0,0,1,1.6-.2,8.97,8.97,0,0,1,1.8.2,2.281,2.281,0,0,1,1.2.6,2.178,2.178,0,0,1,.7.9,6.893,6.893,0,0,1,.4,1l-1.1.2a2.01,2.01,0,0,0-.4-.8c-.2-.2-.3-.4-.5-.6a2.01,2.01,0,0,0-.8-.4,4.121,4.121,0,0,0-1.2-.1,5.9,5.9,0,0,0-1.4.2,1.884,1.884,0,0,0-.9.4,2.651,2.651,0,0,0-.5.6,2.5,2.5,0,0,0,0,1.4,2.187,2.187,0,0,0,.3.5,1.612,1.612,0,0,0,.7.4,10.382,10.382,0,0,0,1.2.3l1.6.3a5.244,5.244,0,0,1,2.5,1,2.947,2.947,0,0,1,.8,2.2,2.663,2.663,0,0,1-.3,1.2,2.54,2.54,0,0,1-.8,1,2.618,2.618,0,0,1-1.3.6,4.678,4.678,0,0,1-1.7.2,11.02,11.02,0,0,1-1.8-.2,3.506,3.506,0,0,1-1.4-.6,4.741,4.741,0,0,1-1-1,3.33,3.33,0,0,1-.5-1.5H300Z" fill="#444839"/>
        <path id="Path_24" data-name="Path 24" d="M309.9,215.8h1.4v1.8h-1.4Zm0,4.1h1.2v10.6h-1.2Z" fill="#444839"/>
        <path id="Path_25" data-name="Path 25" d="M315.2,231.6a2.376,2.376,0,0,0,1,1.5,4.617,4.617,0,0,0,2.3.5,3.418,3.418,0,0,0,2.6-.9,4.369,4.369,0,0,0,.8-2.9v-1.6a4.923,4.923,0,0,1-1.5,1.4,4.342,4.342,0,0,1-2.1.5,3.966,3.966,0,0,1-2-.4,4.071,4.071,0,0,1-1.4-1.2,5.305,5.305,0,0,1-.8-1.7,6.447,6.447,0,0,1-.3-2,7.316,7.316,0,0,1,.3-2.2,4.609,4.609,0,0,1,.9-1.7,4.177,4.177,0,0,1,1.5-1.1,4.477,4.477,0,0,1,2-.4,3.922,3.922,0,0,1,1.8.4,4.4,4.4,0,0,1,1.7,1.4v-1.4h1.2V230a5.331,5.331,0,0,1-1.1,3.4,4.491,4.491,0,0,1-3.5,1.2,8.808,8.808,0,0,1-1.7-.2,5.783,5.783,0,0,1-1.4-.5,4.3,4.3,0,0,1-1-.9,5.782,5.782,0,0,1-.5-1.4Zm6.7-6.9a4.121,4.121,0,0,0-.1-1.2,2.388,2.388,0,0,0-.2-.9,4.348,4.348,0,0,0-.4-.7c-.1-.2-.4-.4-.6-.6a4.672,4.672,0,0,0-1-.5,3.6,3.6,0,0,0-1.1-.2,5.9,5.9,0,0,0-1.4.2,2.836,2.836,0,0,0-1.1.8,3.088,3.088,0,0,0-.7,1.4,6.013,6.013,0,0,0-.3,2,5.618,5.618,0,0,0,.3,2,4.111,4.111,0,0,0,.8,1.3,2.589,2.589,0,0,0,1.1.7,2.537,2.537,0,0,0,1.2.2,3.42,3.42,0,0,0,1.1-.1,9.252,9.252,0,0,0,1-.5,3.815,3.815,0,0,0,1.1-1.4,4.378,4.378,0,0,0,.4-2.1v-.4Z" fill="#444839"/>
        <path id="Path_26" data-name="Path 26" d="M326,219.9h1.2v1.7A8.633,8.633,0,0,1,329,220a4.648,4.648,0,0,1,2.1-.5,3.337,3.337,0,0,1,2.7,1,4.1,4.1,0,0,1,.9,2.8v7h-1.2v-6.7a3.845,3.845,0,0,0-.6-2.4,2.226,2.226,0,0,0-1.9-.7,6.883,6.883,0,0,0-1.3.2,2.4,2.4,0,0,0-1.2.7,4.359,4.359,0,0,0-.9,1.1,3.339,3.339,0,0,0-.3,1.5v6.2H326Z" fill="#444839"/>
        <path id="Path_27" data-name="Path 27" d="M350.4,228.9a4.629,4.629,0,0,1-1.8,1.3,6.042,6.042,0,0,1-2.4.5,7.55,7.55,0,0,1-2.3-.3,3.765,3.765,0,0,1-1.5-.9,3.528,3.528,0,0,1-.8-1.3,4.145,4.145,0,0,1-.2-1.6,3.34,3.34,0,0,1,.3-1.5,7.458,7.458,0,0,1,.7-1.2,5.242,5.242,0,0,1,1.1-1,14.8,14.8,0,0,1,1.3-.8c-.2-.2-.4-.5-.6-.7a2.177,2.177,0,0,1-.5-.8,3.552,3.552,0,0,1-.4-.9,3.4,3.4,0,0,1-.1-1,5.019,5.019,0,0,1,.2-1.2,3.592,3.592,0,0,1,.7-1,2.075,2.075,0,0,1,1-.6,2.745,2.745,0,0,1,1.3-.2,5.9,5.9,0,0,1,1.4.2,8.791,8.791,0,0,1,1,.6,1.8,1.8,0,0,1,.6.9,3.6,3.6,0,0,1,.2,1.1,4.438,4.438,0,0,1-.2,1.3,3.592,3.592,0,0,1-.7,1,3.915,3.915,0,0,1-1,.8c-.4.2-.7.5-1.1.7l4,4.7a9.829,9.829,0,0,0,.5-1.6,8.806,8.806,0,0,0,.2-1.7h1.2a7.8,7.8,0,0,1-.3,2.2,11.918,11.918,0,0,1-.8,2l2.1,2.4H352Zm-5.1-5.9a3.591,3.591,0,0,0-1,.7,6.469,6.469,0,0,0-.9.8,2.362,2.362,0,0,0-.6.9,3.729,3.729,0,0,0-.2,1.2,5.066,5.066,0,0,0,.2,1.3,2.075,2.075,0,0,0,.6,1,4.13,4.13,0,0,0,1.1.7,4.966,4.966,0,0,0,1.8.2,3.966,3.966,0,0,0,2-.4,5.255,5.255,0,0,0,1.4-1.1Zm.4-1.3c.3-.2.6-.3.9-.5a5.545,5.545,0,0,0,.8-.6,2.407,2.407,0,0,0,.6-.8,2.958,2.958,0,0,0,.2-1,2.07,2.07,0,0,0-.5-1.5,2.168,2.168,0,0,0-1.4-.5,1.768,1.768,0,0,0-2,2,2.41,2.41,0,0,0,.4,1.5A9.377,9.377,0,0,0,345.7,221.7Z" fill="#444839"/>
        <path id="Path_28" data-name="Path 28" d="M359.5,215.8h1.2v14.6h-1.2Z" fill="#444839"/>
        <path id="Path_29" data-name="Path 29" d="M363.9,215.8h1.2v14.6h-1.2Z" fill="#444839"/>
        <path id="Path_30" data-name="Path 30" d="M368.1,215.8h1.2v14.6h-1.2Z" fill="#444839"/>
        <path id="Path_31" data-name="Path 31" d="M372.1,219.9h1.2v6.7a4.772,4.772,0,0,0,.5,2.4c.3.5.9.7,1.8.7a6.883,6.883,0,0,0,1.3-.2,2.925,2.925,0,0,0,1.2-.7,4.359,4.359,0,0,0,.9-1.1,3.339,3.339,0,0,0,.3-1.5V220h1.2v10.6h-1.2v-1.7a4.821,4.821,0,0,1-3.8,2.1,3,3,0,0,1-2.6-1,4.767,4.767,0,0,1-.8-2.9Z" fill="#444839"/>
        <path id="Path_32" data-name="Path 32" d="M384,227.5a2.6,2.6,0,0,0,1,1.7,4.617,4.617,0,0,0,2.3.5,3.4,3.4,0,0,0,2.2-.6,1.974,1.974,0,0,0,.6-1.4,1.7,1.7,0,0,0-.1-.7l-.3-.6a4.233,4.233,0,0,0-.7-.5c-.3-.1-.7-.2-1.1-.3l-1.3-.2q-.9-.15-1.5-.3a3.7,3.7,0,0,1-1.1-.5,2.7,2.7,0,0,1-.7-.8,2.165,2.165,0,0,1-.2-1.2,2.768,2.768,0,0,1,.3-1.3,2.361,2.361,0,0,1,.8-.9,8.1,8.1,0,0,1,1.3-.6,4.145,4.145,0,0,1,1.6-.2,8.97,8.97,0,0,1,1.8.2,2.281,2.281,0,0,1,1.2.6,2.178,2.178,0,0,1,.7.9,6.893,6.893,0,0,1,.4,1l-1.1.2a2.01,2.01,0,0,0-.4-.8c-.2-.2-.3-.4-.5-.6a2.01,2.01,0,0,0-.8-.4,4.121,4.121,0,0,0-1.2-.1,5.9,5.9,0,0,0-1.4.2,1.884,1.884,0,0,0-.9.4,2.651,2.651,0,0,0-.5.6,2.5,2.5,0,0,0,0,1.4,2.187,2.187,0,0,0,.3.5,1.612,1.612,0,0,0,.7.4,10.382,10.382,0,0,0,1.2.3l1.6.3a5.244,5.244,0,0,1,2.5,1,2.947,2.947,0,0,1,.8,2.2,2.663,2.663,0,0,1-.3,1.2,2.539,2.539,0,0,1-.8,1,2.618,2.618,0,0,1-1.3.6,4.678,4.678,0,0,1-1.7.2,11.02,11.02,0,0,1-1.8-.2,2.986,2.986,0,0,1-1.4-.6,4.741,4.741,0,0,1-1-1,3.33,3.33,0,0,1-.5-1.5H384Z" fill="#444839"/>
        <path id="Path_33" data-name="Path 33" d="M394.5,220.9h-1.6v-1h1.6V217h1.2v2.9h3v1h-3v6.9a2.5,2.5,0,0,0,.3,1.3,1.29,1.29,0,0,0,1.1.5,2.219,2.219,0,0,0,.9-.1c.2-.1.5-.1.7-.2l.2,1a1.854,1.854,0,0,1-.7.2c-.2,0-.7.1-1.2.1a2.649,2.649,0,0,1-1.4-.3,3.043,3.043,0,0,1-.8-.8,2.133,2.133,0,0,1-.3-1.2c0-.5-.1-.9-.1-1.4v-6Z" fill="#444839"/>
        <path id="Path_34" data-name="Path 34" d="M400.7,219.9h1.2v1.7a4.009,4.009,0,0,1,1.5-1.4,3.686,3.686,0,0,1,1.7-.5h.4a.6.6,0,0,1,.4.1l-.1,1.1c-.2,0-.5-.1-.7-.1a4.253,4.253,0,0,0-1.1.2,2.286,2.286,0,0,0-1,.7,3.915,3.915,0,0,0-.8,1,3.194,3.194,0,0,0-.3,1.4v6.4h-1.2Z" fill="#444839"/>
        <path id="Path_35" data-name="Path 35" d="M414.1,228.9l-.6.6a5.548,5.548,0,0,1-.8.6,4.179,4.179,0,0,1-1,.4,4.868,4.868,0,0,1-1.2.1,4.551,4.551,0,0,1-2.7-.8,2.719,2.719,0,0,1-1-2.4,2.86,2.86,0,0,1,.5-1.7,3.179,3.179,0,0,1,1.2-1.1,4.8,4.8,0,0,1,1.7-.5,12.31,12.31,0,0,1,2-.2l2-.1v-.3a3.715,3.715,0,0,0-.6-2.3,2.644,2.644,0,0,0-2.2-.7,5.282,5.282,0,0,0-1.3.1,2.471,2.471,0,0,0-.9.4,1.724,1.724,0,0,0-.6.6,2.117,2.117,0,0,0-.3.7l-1.1-.2c.4-1.7,1.8-2.6,4.1-2.6a5.412,5.412,0,0,1,1.9.3,2.55,2.55,0,0,1,1.2.8,3.458,3.458,0,0,1,.7,1.2,7.93,7.93,0,0,1,.2,1.7v7h-1.2v-1.6Zm0-4.1-1.9.1a10.316,10.316,0,0,0-2,.2,3.922,3.922,0,0,0-1.3.5,1.779,1.779,0,0,0-.7.8,3.6,3.6,0,0,0-.2,1.1,2.251,2.251,0,0,0,.5,1.5,2.546,2.546,0,0,0,1.9.6,5.067,5.067,0,0,0,1.3-.2,3.7,3.7,0,0,0,1.1-.5c.2-.2.4-.3.6-.5a1.755,1.755,0,0,0,.4-.5,1.445,1.445,0,0,0,.2-.7c0-.3.1-.5.1-.9Z" fill="#444839"/>
        <path id="Path_36" data-name="Path 36" d="M418.8,220.9h-1.6v-1h1.6V217H420v2.9h3v1h-3v6.9a2.5,2.5,0,0,0,.3,1.3,1.29,1.29,0,0,0,1.1.5,2.219,2.219,0,0,0,.9-.1c.2-.1.5-.1.7-.2l.2,1a1.854,1.854,0,0,1-.7.2c-.2,0-.7.1-1.2.1a2.649,2.649,0,0,1-1.4-.3,3.043,3.043,0,0,1-.8-.8,2.133,2.133,0,0,1-.3-1.2c0-.5-.1-.9-.1-1.4v-6Z" fill="#444839"/>
        <path id="Path_37" data-name="Path 37" d="M424.9,215.8h1.4v1.8h-1.4Zm.1,4.1h1.2v10.6H425Z" fill="#444839"/>
        <path id="Path_38" data-name="Path 38" d="M433.7,230.8a4.638,4.638,0,0,1-2.1-.4,4.177,4.177,0,0,1-1.5-1.1,7.677,7.677,0,0,1-1-1.8,7.738,7.738,0,0,1,.1-4.6,5.244,5.244,0,0,1,1-1.8,3.553,3.553,0,0,1,1.6-1.1,5.713,5.713,0,0,1,4.2,0,5.715,5.715,0,0,1,1.6,1.1,7.677,7.677,0,0,1,1,1.8,8.967,8.967,0,0,1,0,4.6,5.244,5.244,0,0,1-1,1.8,3.553,3.553,0,0,1-1.6,1.1A9.256,9.256,0,0,1,433.7,230.8Zm0-1.1a3.064,3.064,0,0,0,1.7-.4,3.566,3.566,0,0,0,1.1-1,5.226,5.226,0,0,0,.7-1.5,8.2,8.2,0,0,0,0-3.6,3.088,3.088,0,0,0-.7-1.4,5.241,5.241,0,0,0-1.1-1,2.861,2.861,0,0,0-1.7-.4,3.064,3.064,0,0,0-1.7.4,2.707,2.707,0,0,0-1.1,1,5.91,5.91,0,0,0-.6,1.4,9.907,9.907,0,0,0-.2,1.8,11.018,11.018,0,0,0,.2,1.8,6.713,6.713,0,0,0,.6,1.5,5.241,5.241,0,0,0,1.1,1A3.064,3.064,0,0,0,433.7,229.7Z" fill="#444839"/>
        <path id="Path_39" data-name="Path 39" d="M441.3,219.9h1.2v1.7a8.633,8.633,0,0,1,1.8-1.6,4.648,4.648,0,0,1,2.1-.5,3.337,3.337,0,0,1,2.7,1,4.1,4.1,0,0,1,.9,2.8v7h-1.2v-6.7a3.845,3.845,0,0,0-.6-2.4,2.226,2.226,0,0,0-1.9-.7,6.883,6.883,0,0,0-1.3.2,3.458,3.458,0,0,0-1.2.7,4.359,4.359,0,0,0-.9,1.1,3.339,3.339,0,0,0-.3,1.5v6.2h-1.2V219.9Z" fill="#444839"/>
      </g>
    </g>
  </g>
</svg>
